<svg id="visual" viewBox="0 0 900 600" width="900" height="600" xmlns="http://www.w3.org/2000/svg" xmlns:xlink="http://www.w3.org/1999/xlink" version="1.1"><rect x="0" y="0" width="900" height="600" fill="#FF0066"></rect><g transform="translate(456.1722832774067 266.0692835178861)"><path d="M136.3 -181.4C171.5 -162 191.3 -115.3 208 -66.9C224.8 -18.4 238.4 31.7 224.2 72C209.9 112.3 167.9 142.7 125.9 175.9C83.9 209.1 41.9 245 -8.4 256.6C-58.8 268.2 -117.6 255.5 -155.1 220.8C-192.7 186.2 -209 129.7 -224.2 74.8C-239.3 19.9 -253.3 -33.5 -230.4 -65.9C-207.6 -98.3 -147.9 -109.9 -103.3 -126.2C-58.8 -142.6 -29.4 -163.8 10.6 -178.3C50.5 -192.9 101.1 -200.8 136.3 -181.4" fill="#BB004B"></path></g></svg>