<svg id="visual" viewBox="0 0 900 600" width="900" height="600" xmlns="http://www.w3.org/2000/svg" xmlns:xlink="http://www.w3.org/1999/xlink" version="1.1"><rect x="0" y="0" width="900" height="600" fill="#FF0066"></rect><g transform="translate(442.98789936301455 307.78404013511084)"><path d="M73 -149.7C95.9 -113.1 116.8 -96.3 153.5 -74.7C190.1 -53 242.6 -26.5 241.6 -0.6C240.5 25.3 186.1 50.7 161.7 93.5C137.3 136.4 142.9 196.8 120.9 219.3C99 241.8 49.5 226.4 0.4 225.7C-48.7 225 -97.3 238.9 -129.2 222.2C-161.1 205.4 -176.3 158 -184.6 115.8C-192.9 73.7 -194.5 36.8 -205.9 -6.6C-217.3 -50 -238.5 -100 -220.8 -125.8C-203 -151.7 -146.3 -153.3 -103 -178.2C-59.7 -203 -29.8 -251 -2.4 -246.8C25 -242.6 50 -186.3 73 -149.7" fill="#BB004B"></path></g></svg>