<svg id="visual" viewBox="0 0 900 600" width="900" height="600" xmlns="http://www.w3.org/2000/svg" xmlns:xlink="http://www.w3.org/1999/xlink" version="1.1"><rect x="0" y="0" width="900" height="600" fill="#FF0066"></rect><g transform="translate(472.6763294534553 343.55969940355874)"><path d="M146.2 -209.8C181.8 -175.3 197.9 -122.4 207.1 -72.4C216.2 -22.5 218.4 24.6 199.2 58.9C180 93.1 139.4 114.5 102.6 129.4C65.8 144.3 32.9 152.6 -4.1 158.3C-41.1 164 -82.3 166.9 -122.9 153.3C-163.4 139.6 -203.5 109.4 -230.4 65.6C-257.4 21.8 -271.4 -35.4 -245.5 -68.8C-219.6 -102.3 -153.9 -111.8 -106.3 -142.5C-58.8 -173.2 -29.4 -225.1 12.9 -242.9C55.3 -260.7 110.5 -244.4 146.2 -209.8" fill="#BB004B"></path></g></svg>