<svg id="visual" viewBox="0 0 900 600" width="900" height="600" xmlns="http://www.w3.org/2000/svg" xmlns:xlink="http://www.w3.org/1999/xlink" version="1.1"><rect x="0" y="0" width="900" height="600" fill="#FF0066"></rect><g transform="translate(452.3980974370545 319.02336859201296)"><path d="M149 -217.7C181.9 -181.1 189.9 -122.7 202.9 -69.1C215.9 -15.6 234 33.2 224.1 75.7C214.3 118.2 176.5 154.6 134.5 184.3C92.5 214 46.2 237 6 228.8C-34.3 220.5 -68.6 181.1 -116.1 153.2C-163.7 125.3 -224.5 109 -231.1 77.7C-237.8 46.4 -190.2 0 -171.2 -54.7C-152.1 -109.4 -161.6 -172.4 -137.8 -212C-114 -251.6 -57 -267.8 0.5 -268.5C58 -269.2 116 -254.3 149 -217.7" fill="#BB004B"></path></g></svg>